/// http://www.dafont.com/reality-hyper.font?l[]=10 converted with http://typeface.neocracy.org/
if (_typeface_js && _typeface_js.loadFace) _typeface_js.loadFace({"glyphs":{"S":{"x_min":0,"x_max":1074.390625,"ha":1022,"o":"m 0 0 l 23 133 l 623 133 l 702 200 l 713 266 l 47 266 l 105 600 l 341 800 l 1074 800 l 1027 533 l 760 533 l 784 666 l 450 666 l 372 600 l 337 400 l 1004 400 l 968 200 l 733 0 l 0 0 "},"":{"x_min":0,"x_max":5341.40625,"ha":5334,"o":"m 3537 400 l 3560 533 l 3827 533 l 3804 400 l 3537 400 m 752 -266 l 580 266 l 447 266 l 470 400 l 670 400 l 748 466 l 784 666 l 450 666 l 372 600 l 266 0 l 0 0 l 105 600 l 341 800 l 1074 800 l 1015 466 l 780 266 l 847 266 l 976 -133 l 1976 -133 l 1952 -266 l 752 -266 m 1066 0 l 1172 600 l 1407 800 l 2141 800 l 2082 466 l 1847 266 l 1514 266 l 1537 400 l 1737 400 l 1815 466 l 1850 666 l 1517 666 l 1439 600 l 1357 133 l 2023 133 l 2000 0 l 1066 0 m 2133 0 l 2239 600 l 2474 800 l 3207 800 l 3090 133 l 3490 133 l 3514 266 l 3780 266 l 3733 0 l 2800 0 l 2917 666 l 2584 666 l 2505 600 l 2423 133 l 2690 133 l 2666 0 l 2133 0 m 3866 0 l 3984 666 l 3584 666 l 3607 800 l 4674 800 l 4651 666 l 4251 666 l 4133 0 l 3866 0 m 3819 -266 l 3843 -133 l 4843 -133 l 4921 -66 l 4933 0 l 4467 0 l 4302 200 l 4360 533 l 4627 533 l 4569 200 l 4623 133 l 4957 133 l 5074 800 l 5341 800 l 5188 -66 l 4953 -266 l 3819 -266 "},"K":{"x_min":0,"x_max":1074.390625,"ha":1022,"o":"m 0 0 l 140 800 l 407 800 l 360 533 l 627 533 l 807 800 l 1074 800 l 1050 666 l 984 666 l 893 533 l 1027 533 l 933 0 l 666 0 l 737 400 l 337 400 l 266 0 l 0 0 "},"7":{"x_min":93.75,"x_max":1038.96875,"ha":1022,"o":"m 666 0 l 772 600 l 717 666 l 384 666 l 360 533 l 93 533 l 140 800 l 874 800 l 1038 600 l 933 0 l 666 0 "},"d":{"x_min":0,"x_max":1121.625,"ha":1022,"o":"m 0 0 l 105 600 l 341 800 l 674 800 l 650 666 l 450 666 l 372 600 l 290 133 l 623 133 l 702 200 l 854 1066 l 1121 1066 l 968 200 l 733 0 l 0 0 "},",":{"x_min":-23.609375,"x_max":302.109375,"ha":356,"o":"m -23 -133 l 66 0 l 0 0 l 35 200 l 302 200 l 266 0 l 109 -133 l -23 -133 "},"Y":{"x_min":0,"x_max":1074.390625,"ha":1022,"o":"m 0 0 l 23 133 l 623 133 l 702 200 l 713 266 l 247 266 l 81 466 l 140 800 l 407 800 l 348 466 l 404 400 l 737 400 l 807 800 l 1074 800 l 968 200 l 733 0 l 0 0 "},"E":{"x_min":0,"x_max":1074.390625,"ha":1022,"o":"m 0 0 l 105 600 l 341 800 l 1074 800 l 1027 533 l 760 533 l 784 666 l 450 666 l 372 600 l 337 400 l 1004 400 l 980 266 l 313 266 l 290 133 l 957 133 l 933 0 l 0 0 "},"y":{"x_min":-47.21875,"x_max":1074.390625,"ha":1022,"o":"m -47 -266 l -23 -133 l 576 -133 l 654 -66 l 666 0 l 200 0 l 34 200 l 140 800 l 407 800 l 301 200 l 356 133 l 690 133 l 807 800 l 1074 800 l 921 -66 l 686 -266 l -47 -266 "},"\"":{"x_min":93.75,"x_max":819.515625,"ha":756,"o":"m 93 533 l 184 666 l 117 666 l 152 866 l 419 866 l 384 666 l 227 533 l 93 533 m 493 533 l 584 666 l 517 666 l 552 866 l 819 866 l 784 666 l 627 533 l 493 533 "},"g":{"x_min":-47.21875,"x_max":1074.390625,"ha":1022,"o":"m -47 -266 l -23 -133 l 576 -133 l 654 -66 l 784 666 l 450 666 l 372 600 l 290 133 l 556 133 l 533 0 l 0 0 l 105 600 l 341 800 l 1074 800 l 921 -66 l 686 -266 l -47 -266 "},"–":{"x_min":70.84375,"x_max":627.828125,"ha":622,"o":"m 70 400 l 94 533 l 627 533 l 604 400 l 70 400 "},"e":{"x_min":0,"x_max":1074.390625,"ha":1022,"o":"m 0 0 l 105 600 l 341 800 l 1074 800 l 1015 466 l 780 266 l 447 266 l 470 400 l 670 400 l 748 466 l 784 666 l 450 666 l 372 600 l 290 133 l 957 133 l 933 0 l 0 0 "},"J":{"x_min":0,"x_max":1074.390625,"ha":1022,"o":"m 0 0 l 47 266 l 313 266 l 290 133 l 623 133 l 702 200 l 784 666 l 384 666 l 407 800 l 1074 800 l 968 200 l 733 0 l 0 0 "},"":{"x_min":0,"x_max":5341.40625,"ha":5334,"o":"m 0 0 l 140 800 l 407 800 l 360 533 l 760 533 l 807 800 l 1474 800 l 1450 666 l 1050 666 l 933 0 l 666 0 l 737 400 l 337 400 l 266 0 l 0 0 m 619 -266 l 643 -133 l 1643 -133 l 1721 -66 l 1733 0 l 1266 0 l 1102 200 l 1160 533 l 1427 533 l 1368 200 l 1423 133 l 1757 133 l 1874 800 l 2141 800 l 1988 -66 l 1752 -266 l 619 -266 m 2133 0 l 2239 600 l 2474 800 l 3207 800 l 3148 466 l 2914 266 l 2580 266 l 2604 400 l 2804 400 l 2882 466 l 2917 666 l 2584 666 l 2505 600 l 2400 0 l 2133 0 m 3200 0 l 3305 600 l 3541 800 l 4274 800 l 4215 466 l 3980 266 l 3647 266 l 3671 400 l 3871 400 l 3948 466 l 3984 666 l 3650 666 l 3572 600 l 3490 133 l 4290 133 l 4372 600 l 4608 800 l 5341 800 l 5282 466 l 5047 266 l 5114 266 l 5157 133 l 5224 133 l 5200 0 l 4933 0 l 4847 266 l 4714 266 l 4737 400 l 4937 400 l 5015 466 l 5051 666 l 4717 666 l 4639 600 l 4533 0 l 3200 0 "},"|":{"x_min":-47.21875,"x_max":454.890625,"ha":356,"o":"m -47 -266 l 188 1066 l 454 1066 l 219 -266 l -47 -266 "},"q":{"x_min":0,"x_max":1074.390625,"ha":1022,"o":"m 619 -266 l 784 666 l 450 666 l 372 600 l 290 133 l 556 133 l 533 0 l 0 0 l 105 600 l 341 800 l 1074 800 l 886 -266 l 619 -266 "},"b":{"x_min":0,"x_max":1038.96875,"ha":1022,"o":"m 0 0 l 188 1066 l 454 1066 l 290 133 l 690 133 l 772 600 l 717 666 l 517 666 l 541 800 l 874 800 l 1038 600 l 933 0 l 0 0 "},"D":{"x_min":0,"x_max":1074.390625,"ha":1022,"o":"m 623 133 l 702 200 l 784 666 l 384 666 l 290 133 l 623 133 m 0 0 l 140 800 l 1074 800 l 968 200 l 733 0 l 0 0 "},"z":{"x_min":35.421875,"x_max":1039.671875,"ha":1022,"o":"m 200 0 l 35 200 l 70 400 l 737 400 l 772 600 l 717 666 l 384 666 l 361 533 l 94 533 l 140 800 l 874 800 l 1039 600 l 980 266 l 313 266 l 302 200 l 356 133 l 957 133 l 933 0 l 200 0 "},"w":{"x_min":0,"x_max":1474.421875,"ha":1422,"o":"m 0 0 l 140 800 l 407 800 l 290 133 l 556 133 l 674 800 l 941 800 l 823 133 l 1023 133 l 1102 200 l 1207 800 l 1474 800 l 1368 200 l 1133 0 l 0 0 "},"$":{"x_min":0,"x_max":1074.390625,"ha":1022,"o":"m 376 -133 l 400 0 l 0 0 l 23 133 l 623 133 l 702 200 l 713 266 l 47 266 l 105 600 l 341 800 l 541 800 l 564 933 l 697 933 l 674 800 l 1074 800 l 1027 533 l 760 533 l 784 666 l 450 666 l 372 600 l 337 400 l 1004 400 l 968 200 l 733 0 l 533 0 l 509 -133 l 376 -133 "},"’":{"x_min":182.65625,"x_max":508.375,"ha":444,"o":"m 182 533 l 272 666 l 206 666 l 241 866 l 508 866 l 472 666 l 316 533 l 182 533 "},"-":{"x_min":70.84375,"x_max":627.828125,"ha":622,"o":"m 70 400 l 94 533 l 627 533 l 604 400 l 70 400 "},"Q":{"x_min":0,"x_max":1074.390625,"ha":1022,"o":"m 623 133 l 702 200 l 784 666 l 450 666 l 372 600 l 290 133 l 623 133 m 619 -266 l 533 0 l 0 0 l 105 600 l 341 800 l 1074 800 l 968 200 l 733 0 l 800 0 l 843 -133 l 909 -133 l 886 -266 l 619 -266 "},"M":{"x_min":0,"x_max":1439,"ha":1422,"o":"m 0 0 l 140 800 l 1274 800 l 1439 600 l 1333 0 l 1066 0 l 1172 600 l 1117 666 l 917 666 l 800 0 l 533 0 l 650 666 l 384 666 l 266 0 l 0 0 "},"C":{"x_min":0,"x_max":1074.390625,"ha":1022,"o":"m 0 0 l 105 600 l 341 800 l 1074 800 l 1027 533 l 760 533 l 784 666 l 450 666 l 372 600 l 290 133 l 957 133 l 933 0 l 0 0 "},"[":{"x_min":-47.21875,"x_max":721.578125,"ha":622,"o":"m -47 -266 l 188 1066 l 721 1066 l 697 933 l 431 933 l 243 -133 l 509 -133 l 486 -266 l -47 -266 "},"L":{"x_min":0,"x_max":957.015625,"ha":1022,"o":"m 0 0 l 140 800 l 407 800 l 290 133 l 957 133 l 933 0 l 0 0 "},"!":{"x_min":0,"x_max":407.671875,"ha":356,"o":"m 0 0 l 35 200 l 302 200 l 266 0 l 0 0 m 59 333 l 140 800 l 407 800 l 325 333 l 59 333 "}," ":{"x_min":0,"x_max":0,"ha":444},"{":{"x_min":59.03125,"x_max":988.28125,"ha":889,"o":"m 988 1066 l 964 933 l 764 933 l 686 866 l 627 533 l 470 400 l 580 266 l 521 -66 l 576 -133 l 776 -133 l 752 -266 l 419 -266 l 254 -66 l 313 266 l 259 333 l 59 333 l 82 466 l 282 466 l 361 533 l 419 866 l 654 1066 l 988 1066 "},"X":{"x_min":0,"x_max":1074.390625,"ha":1022,"o":"m 0 0 l 59 333 l 215 466 l 105 600 l 140 800 l 407 800 l 372 600 l 427 533 l 693 533 l 772 600 l 807 800 l 1074 800 l 1038 600 l 882 466 l 992 333 l 933 0 l 666 0 l 725 333 l 670 400 l 404 400 l 325 333 l 266 0 l 0 0 "},"P":{"x_min":0,"x_max":1074.390625,"ha":1022,"o":"m 0 0 l 105 600 l 341 800 l 1074 800 l 1015 466 l 780 266 l 447 266 l 470 400 l 670 400 l 748 466 l 784 666 l 450 666 l 372 600 l 266 0 l 0 0 "},"+":{"x_min":70.84375,"x_max":894.515625,"ha":889,"o":"m 290 133 l 337 400 l 70 400 l 94 533 l 361 533 l 408 800 l 675 800 l 627 533 l 894 533 l 870 400 l 604 400 l 556 133 l 290 133 "},")":{"x_min":-47.21875,"x_max":686.171875,"ha":622,"o":"m -47 -266 l -23 -133 l 176 -133 l 254 -66 l 419 866 l 364 933 l 164 933 l 188 1066 l 521 1066 l 686 866 l 521 -66 l 286 -266 l -47 -266 "},"'":{"x_min":93.75,"x_max":419.484375,"ha":356,"o":"m 93 533 l 184 666 l 117 666 l 152 866 l 419 866 l 384 666 l 227 533 l 93 533 "},"}":{"x_min":0.125,"x_max":929.25,"ha":889,"o":"m 0 -266 l 23 -133 l 223 -133 l 302 -66 l 360 266 l 517 400 l 407 533 l 466 866 l 411 933 l 211 933 l 235 1066 l 568 1066 l 733 866 l 674 533 l 729 466 l 929 466 l 905 333 l 705 333 l 627 266 l 568 -66 l 333 -266 l 0 -266 "},"T":{"x_min":117.375,"x_max":1074.390625,"ha":1022,"o":"m 333 0 l 450 666 l 117 666 l 140 800 l 1074 800 l 1050 666 l 717 666 l 600 0 l 333 0 "},"a":{"x_min":0,"x_max":1074.390625,"ha":1022,"o":"m 0 0 l 105 600 l 341 800 l 1074 800 l 933 0 l 666 0 l 784 666 l 450 666 l 372 600 l 290 133 l 556 133 l 533 0 l 0 0 "},"—":{"x_min":70.84375,"x_max":894.515625,"ha":889,"o":"m 70 400 l 94 533 l 894 533 l 870 400 l 70 400 "},"=":{"x_min":47.21875,"x_max":918.125,"ha":889,"o":"m 47 266 l 70 400 l 870 400 l 847 266 l 47 266 m 94 533 l 118 666 l 918 666 l 894 533 l 94 533 "},"N":{"x_min":0,"x_max":1038.96875,"ha":1022,"o":"m 0 0 l 140 800 l 874 800 l 1038 600 l 933 0 l 666 0 l 772 600 l 717 666 l 384 666 l 266 0 l 0 0 "},"2":{"x_min":0,"x_max":1038.96875,"ha":1022,"o":"m 0 0 l 70 400 l 737 400 l 772 600 l 717 666 l 384 666 l 360 533 l 93 533 l 140 800 l 874 800 l 1038 600 l 980 266 l 313 266 l 290 133 l 957 133 l 933 0 l 0 0 "},"j":{"x_min":0,"x_max":1074.390625,"ha":1022,"o":"m 0 0 l 47 266 l 313 266 l 290 133 l 623 133 l 702 200 l 784 666 l 384 666 l 407 800 l 1074 800 l 968 200 l 733 0 l 0 0 "},"Z":{"x_min":35.421875,"x_max":1039.671875,"ha":1022,"o":"m 200 0 l 35 200 l 70 400 l 737 400 l 772 600 l 717 666 l 384 666 l 361 533 l 94 533 l 140 800 l 874 800 l 1039 600 l 980 266 l 313 266 l 302 200 l 356 133 l 957 133 l 933 0 l 200 0 "},"u":{"x_min":35.421875,"x_max":1074.390625,"ha":1022,"o":"m 200 0 l 35 200 l 140 800 l 407 800 l 302 200 l 356 133 l 690 133 l 807 800 l 1074 800 l 933 0 l 200 0 "},"1":{"x_min":117.375,"x_max":674.359375,"ha":622,"o":"m 266 0 l 384 666 l 117 666 l 140 800 l 674 800 l 533 0 l 266 0 "},"k":{"x_min":0,"x_max":1074.390625,"ha":1022,"o":"m 0 0 l 188 1066 l 454 1066 l 360 533 l 627 533 l 807 800 l 1074 800 l 1050 666 l 984 666 l 893 533 l 1027 533 l 933 0 l 666 0 l 737 400 l 337 400 l 266 0 l 0 0 "},"t":{"x_min":35.421875,"x_max":674.359375,"ha":622,"o":"m 200 0 l 35 200 l 188 1066 l 454 1066 l 407 800 l 674 800 l 650 666 l 384 666 l 302 200 l 356 133 l 556 133 l 533 0 l 200 0 "},"W":{"x_min":0,"x_max":1474.421875,"ha":1422,"o":"m 0 0 l 140 800 l 407 800 l 290 133 l 556 133 l 674 800 l 941 800 l 823 133 l 1023 133 l 1102 200 l 1207 800 l 1474 800 l 1368 200 l 1133 0 l 0 0 "},"v":{"x_min":0,"x_max":1074.390625,"ha":1022,"o":"m 0 0 l 140 800 l 407 800 l 290 133 l 490 133 l 725 333 l 807 800 l 1074 800 l 992 333 l 600 0 l 0 0 "},"s":{"x_min":0,"x_max":1074.390625,"ha":1022,"o":"m 0 0 l 23 133 l 623 133 l 702 200 l 713 266 l 47 266 l 105 600 l 341 800 l 1074 800 l 1027 533 l 760 533 l 784 666 l 450 666 l 372 600 l 337 400 l 1004 400 l 968 200 l 733 0 l 0 0 "},"B":{"x_min":0,"x_max":1074.390625,"ha":1022,"o":"m 0 0 l 105 600 l 341 800 l 1074 800 l 1038 600 l 882 466 l 992 333 l 968 200 l 733 0 l 400 0 l 423 133 l 623 133 l 702 200 l 725 333 l 670 400 l 470 400 l 493 533 l 693 533 l 772 600 l 784 666 l 450 666 l 372 600 l 266 0 l 0 0 "},"…":{"x_min":0,"x_max":1102.171875,"ha":1156,"o":"m 0 0 l 35 200 l 302 200 l 266 0 l 0 0 m 400 0 l 435 200 l 702 200 l 666 0 l 400 0 m 800 0 l 835 200 l 1102 200 l 1066 0 l 800 0 "},"?":{"x_min":93.75,"x_max":1038.96875,"ha":1022,"o":"m 333 0 l 368 200 l 634 200 l 600 0 l 333 0 m 391 333 l 415 466 l 748 466 l 772 600 l 717 666 l 384 666 l 360 533 l 93 533 l 140 800 l 874 800 l 1038 600 l 991 333 l 391 333 "},"H":{"x_min":0,"x_max":1074.390625,"ha":1022,"o":"m 0 0 l 140 800 l 407 800 l 360 533 l 760 533 l 807 800 l 1074 800 l 933 0 l 666 0 l 737 400 l 337 400 l 266 0 l 0 0 "},"c":{"x_min":0,"x_max":1074.390625,"ha":1022,"o":"m 0 0 l 105 600 l 341 800 l 1074 800 l 1027 533 l 760 533 l 784 666 l 450 666 l 372 600 l 290 133 l 957 133 l 933 0 l 0 0 "},"&":{"x_min":0,"x_max":1074.390625,"ha":1022,"o":"m 0 0 l 59 333 l 215 466 l 105 600 l 140 800 l 1074 800 l 1050 666 l 384 666 l 372 600 l 427 533 l 627 533 l 604 400 l 404 400 l 325 333 l 290 133 l 623 133 l 702 200 l 760 533 l 1027 533 l 968 200 l 733 0 l 0 0 "},"I":{"x_min":0,"x_max":407.671875,"ha":356,"o":"m 0 0 l 140 800 l 407 800 l 266 0 l 0 0 "},"G":{"x_min":0,"x_max":1074.390625,"ha":1022,"o":"m 0 0 l 105 600 l 341 800 l 1074 800 l 1027 533 l 760 533 l 784 666 l 450 666 l 372 600 l 290 133 l 690 133 l 713 266 l 447 266 l 470 400 l 1004 400 l 933 0 l 0 0 "},"(":{"x_min":-11.8125,"x_max":721.578125,"ha":622,"o":"m 152 -266 l -11 -66 l 152 866 l 388 1066 l 721 1066 l 697 933 l 497 933 l 419 866 l 254 -66 l 309 -133 l 509 -133 l 486 -266 l 152 -266 "},"U":{"x_min":35.421875,"x_max":1074.390625,"ha":1022,"o":"m 200 0 l 35 200 l 140 800 l 407 800 l 302 200 l 356 133 l 690 133 l 807 800 l 1074 800 l 933 0 l 200 0 "},"F":{"x_min":0,"x_max":1074.390625,"ha":1022,"o":"m 0 0 l 105 600 l 341 800 l 1074 800 l 1027 533 l 760 533 l 784 666 l 450 666 l 372 600 l 337 400 l 1004 400 l 980 266 l 313 266 l 266 0 l 0 0 "},"r":{"x_min":0,"x_max":1074.390625,"ha":1022,"o":"m 0 0 l 105 600 l 341 800 l 1074 800 l 1015 466 l 780 266 l 847 266 l 890 133 l 957 133 l 933 0 l 666 0 l 580 266 l 447 266 l 470 400 l 670 400 l 748 466 l 784 666 l 450 666 l 372 600 l 266 0 l 0 0 "},":":{"x_min":0,"x_max":384.0625,"ha":356,"o":"m 0 0 l 35 200 l 302 200 l 266 0 l 0 0 m 81 466 l 117 666 l 384 666 l 348 466 l 81 466 "},"x":{"x_min":0,"x_max":1074.390625,"ha":1022,"o":"m 0 0 l 59 333 l 215 466 l 105 600 l 140 800 l 407 800 l 372 600 l 427 533 l 693 533 l 772 600 l 807 800 l 1074 800 l 1038 600 l 882 466 l 992 333 l 933 0 l 666 0 l 725 333 l 670 400 l 404 400 l 325 333 l 266 0 l 0 0 "},"V":{"x_min":0,"x_max":1074.390625,"ha":1022,"o":"m 0 0 l 140 800 l 407 800 l 290 133 l 490 133 l 725 333 l 807 800 l 1074 800 l 992 333 l 600 0 l 0 0 "},"h":{"x_min":0,"x_max":1074.390625,"ha":1022,"o":"m 0 0 l 140 800 l 407 800 l 360 533 l 760 533 l 807 800 l 1074 800 l 933 0 l 666 0 l 737 400 l 337 400 l 266 0 l 0 0 "},"0":{"x_min":0,"x_max":1074.390625,"ha":1022,"o":"m 459 333 l 481 466 l 615 466 l 592 333 l 459 333 m 623 133 l 702 200 l 784 666 l 450 666 l 372 600 l 290 133 l 623 133 m 0 0 l 105 600 l 341 800 l 1074 800 l 968 200 l 733 0 l 0 0 "},".":{"x_min":0,"x_max":302.109375,"ha":356,"o":"m 0 0 l 35 200 l 302 200 l 266 0 l 0 0 "},"":{"x_min":0,"x_max":886.875,"ha":956,"o":"m 145 800 l 702 800 l 732 770 q 684 593 693 600 l 857 593 l 886 564 q 829 361 841 361 l 706 309 l 674 309 l 645 338 l 661 412 l 641 412 q 586 206 595 206 l 384 206 l 380 180 l 606 180 q 635 284 627 284 l 664 284 q 796 200 759 243 q 741 0 751 8 l 184 0 l 154 29 l 196 206 l 29 206 l 0 235 q 145 800 136 800 m 158 774 l 31 258 l 229 258 l 235 251 l 186 51 l 702 51 l 741 209 l 647 258 l 647 254 q 619 154 627 154 l 322 154 l 316 161 q 345 258 337 258 l 547 258 q 602 464 594 464 l 693 464 l 700 457 q 680 361 680 389 q 793 419 793 409 l 829 567 l 312 567 q 258 361 266 361 l 167 361 l 161 367 q 241 670 234 666 l 538 670 l 545 664 q 531 593 531 622 q 645 651 645 641 l 674 774 l 158 774 m 280 619 l 225 386 l 245 386 q 300 593 291 593 l 502 593 l 506 619 l 280 619 m 396 464 l 486 464 l 493 457 q 464 361 472 361 l 374 361 l 367 367 q 396 464 388 464 m 435 412 l 431 386 l 451 386 l 454 412 l 435 412 "},"”":{"x_min":182.65625,"x_max":908.40625,"ha":845,"o":"m 182 533 l 272 666 l 206 666 l 241 866 l 508 866 l 472 666 l 316 533 l 182 533 m 582 533 l 672 666 l 606 666 l 641 866 l 908 866 l 872 666 l 716 533 l 582 533 "},";":{"x_min":-23.609375,"x_max":384.0625,"ha":356,"o":"m -23 -133 l 66 0 l 0 0 l 35 200 l 302 200 l 266 0 l 109 -133 l -23 -133 m 81 466 l 117 666 l 384 666 l 348 466 l 81 466 "},"f":{"x_min":0,"x_max":1074.390625,"ha":1022,"o":"m 0 0 l 105 600 l 341 800 l 1074 800 l 1027 533 l 760 533 l 784 666 l 450 666 l 372 600 l 337 400 l 1004 400 l 980 266 l 313 266 l 266 0 l 0 0 "},"“":{"x_min":170.84375,"x_max":896.59375,"ha":845,"o":"m 170 466 l 206 666 l 363 800 l 496 800 l 406 666 l 472 666 l 437 466 l 170 466 m 570 466 l 606 666 l 763 800 l 896 800 l 806 666 l 872 666 l 837 466 l 570 466 "},"i":{"x_min":0,"x_max":407.671875,"ha":356,"o":"m 0 0 l 93 533 l 360 533 l 266 0 l 0 0 m 117 666 l 140 800 l 407 800 l 384 666 l 117 666 "},"A":{"x_min":0,"x_max":1074.390625,"ha":1022,"o":"m 737 400 l 784 666 l 450 666 l 372 600 l 337 400 l 737 400 m 0 0 l 105 600 l 341 800 l 1074 800 l 933 0 l 666 0 l 713 266 l 313 266 l 266 0 l 0 0 "},"6":{"x_min":0,"x_max":1074.390625,"ha":1022,"o":"m 623 133 l 702 200 l 737 400 l 337 400 l 290 133 l 623 133 m 0 0 l 105 600 l 341 800 l 1074 800 l 1050 666 l 450 666 l 372 600 l 360 533 l 1027 533 l 968 200 l 733 0 l 0 0 "},"‘":{"x_min":170.84375,"x_max":496.5625,"ha":444,"o":"m 170 466 l 206 666 l 363 800 l 496 800 l 406 666 l 472 666 l 437 466 l 170 466 "},"n":{"x_min":0,"x_max":1038.96875,"ha":1022,"o":"m 0 0 l 140 800 l 874 800 l 1038 600 l 933 0 l 666 0 l 772 600 l 717 666 l 384 666 l 266 0 l 0 0 "},"O":{"x_min":0,"x_max":1074.390625,"ha":1022,"o":"m 623 133 l 702 200 l 784 666 l 450 666 l 372 600 l 290 133 l 623 133 m 0 0 l 105 600 l 341 800 l 1074 800 l 968 200 l 733 0 l 0 0 "},"3":{"x_min":0,"x_max":1074.390625,"ha":1022,"o":"m 0 0 l 47 266 l 313 266 l 290 133 l 623 133 l 702 200 l 725 333 l 670 400 l 70 400 l 93 533 l 693 533 l 772 600 l 784 666 l 117 666 l 140 800 l 1074 800 l 1038 600 l 882 466 l 992 333 l 968 200 l 733 0 l 0 0 "},"]":{"x_min":-47.21875,"x_max":721.578125,"ha":622,"o":"m -47 -266 l -23 -133 l 243 -133 l 431 933 l 164 933 l 188 1066 l 721 1066 l 486 -266 l -47 -266 "},"m":{"x_min":0,"x_max":1439,"ha":1422,"o":"m 0 0 l 140 800 l 1274 800 l 1439 600 l 1333 0 l 1066 0 l 1172 600 l 1117 666 l 917 666 l 800 0 l 533 0 l 650 666 l 384 666 l 266 0 l 0 0 "},"9":{"x_min":0.125,"x_max":1074.390625,"ha":1022,"o":"m 450 666 l 372 600 l 336 400 l 736 400 l 784 666 l 450 666 m 1074 800 l 968 200 l 733 0 l 0 0 l 23 133 l 623 133 l 702 200 l 713 266 l 47 266 l 105 600 l 341 800 l 1074 800 "},"8":{"x_min":0,"x_max":1074.390625,"ha":1022,"o":"m 690 133 l 725 333 l 670 400 l 404 400 l 325 333 l 290 133 l 690 133 m 693 533 l 772 600 l 784 666 l 384 666 l 372 600 l 427 533 l 693 533 m 0 0 l 59 333 l 215 466 l 105 600 l 140 800 l 1074 800 l 1038 600 l 882 466 l 992 333 l 933 0 l 0 0 "},"l":{"x_min":0,"x_max":980.640625,"ha":1022,"o":"m 0 0 l 188 1066 l 454 1066 l 290 133 l 690 133 l 713 266 l 980 266 l 933 0 l 0 0 "},"p":{"x_min":-47.21875,"x_max":1074.390625,"ha":1022,"o":"m -47 -266 l 105 600 l 341 800 l 1074 800 l 968 200 l 733 0 l 400 0 l 423 133 l 623 133 l 701 200 l 784 666 l 450 666 l 372 600 l 219 -266 l -47 -266 "},"4":{"x_min":47.21875,"x_max":1074.390625,"ha":1022,"o":"m 666 0 l 713 266 l 47 266 l 140 800 l 407 800 l 337 400 l 737 400 l 807 800 l 1074 800 l 933 0 l 666 0 "},"R":{"x_min":0,"x_max":1074.390625,"ha":1022,"o":"m 0 0 l 105 600 l 341 800 l 1074 800 l 1015 466 l 780 266 l 847 266 l 890 133 l 957 133 l 933 0 l 666 0 l 580 266 l 447 266 l 470 400 l 670 400 l 748 466 l 784 666 l 450 666 l 372 600 l 266 0 l 0 0 "},"o":{"x_min":0,"x_max":1074.390625,"ha":1022,"o":"m 623 133 l 702 200 l 784 666 l 450 666 l 372 600 l 290 133 l 623 133 m 0 0 l 105 600 l 341 800 l 1074 800 l 968 200 l 733 0 l 0 0 "},"5":{"x_min":0,"x_max":1074.390625,"ha":1022,"o":"m 0 0 l 47 266 l 313 266 l 290 133 l 623 133 l 702 200 l 737 400 l 70 400 l 140 800 l 1074 800 l 1050 666 l 384 666 l 360 533 l 1027 533 l 968 200 l 733 0 l 0 0 "}}}
